<svg width="100" height="100" viewBox="0 0 100 100" fill="none" xmlns="http://www.w3.org/2000/svg">
<g clip-path="url(#clip0_289_8)">
<path d="M10.0475 100H67.8425C85.6025 100 99.9975 85.6025 99.9975 67.845V10.0475C100 4.4975 95.5025 0 89.9525 0H10.0475C4.4975 0 0 4.4975 0 10.0475V89.95C0 95.5 4.4975 99.9975 10.0475 99.9975V100Z" fill="#0066FF"/>
<path d="M20.8206 39.5776C21.9781 39.5776 22.9756 40.0676 23.8156 41.0476L26.6981 38.5101C26.0106 37.6701 25.1481 37.0301 24.1131 36.5926C23.0756 36.1526 21.9031 35.9351 20.5931 35.9351C19.1306 35.9351 17.8256 36.2351 16.6806 36.8326C15.5356 37.4301 14.6431 38.2726 14.0006 39.3601C13.3581 40.4476 13.0381 41.6901 13.0381 43.0901C13.0381 44.4901 13.3356 45.7401 13.9356 46.7626C14.5331 47.7876 15.3456 48.5651 16.3681 49.1001C17.3931 49.6351 18.5331 49.9026 19.7931 49.9026C21.2931 49.9026 22.4906 49.5276 23.3806 48.7776C23.3806 49.2301 23.7481 49.5976 24.2006 49.5976H26.3181V42.5576H22.4056V45.7626C21.8581 46.1451 21.1981 46.3351 20.4206 46.3351C19.5806 46.3351 18.8981 46.0626 18.3706 45.5151C17.8431 44.9676 17.5781 44.1476 17.5781 43.0526C17.5781 41.9576 17.8681 41.1076 18.4456 40.4951C19.0256 39.8851 19.8156 39.5801 20.8206 39.5801V39.5776Z" fill="white"/>
<path d="M39.0604 43.7752C39.4929 43.0627 39.7079 42.2302 39.7079 41.2752C39.7079 40.2577 39.4604 39.3677 38.9629 38.6052C38.4679 37.8427 37.7604 37.2577 36.8454 36.8502C35.9304 36.4427 34.8554 36.2402 33.6204 36.2402H27.1904V49.5977H31.6929V46.2402H32.9129L35.1829 49.5977H39.9904L37.1854 45.4752C38.0004 45.0552 38.6229 44.4902 39.0554 43.7777L39.0604 43.7752ZM34.7079 42.4302C34.4029 42.7027 33.9454 42.8402 33.3354 42.8402H31.6954V39.7102H33.3354C33.9454 39.7102 34.4029 39.8477 34.7079 40.1202C35.0129 40.3927 35.1654 40.7777 35.1654 41.2752C35.1654 41.7727 35.0129 42.1552 34.7079 42.4302Z" fill="white"/>
<path d="M51.9055 36.8301C50.7605 36.2326 49.468 35.9326 48.033 35.9326C46.598 35.9326 45.3055 36.2326 44.1605 36.8301C43.0155 37.4276 42.118 38.2576 41.4705 39.3201C40.823 40.3826 40.498 41.5801 40.498 42.9176C40.498 44.2551 40.823 45.4526 41.4705 46.5151C42.1205 47.5776 43.0155 48.4076 44.1605 49.0051C45.3055 49.6026 46.5955 49.9026 48.033 49.9026C49.4705 49.9026 50.7605 49.6026 51.9055 49.0051C53.0505 48.4076 53.948 47.5776 54.5955 46.5151C55.243 45.4526 55.568 44.2551 55.568 42.9176C55.568 41.5801 55.243 40.3826 54.5955 39.3201C53.9455 38.2576 53.0505 37.4276 51.9055 36.8301ZM50.628 44.6826C50.3605 45.1851 50.0005 45.5726 49.5505 45.8476C49.098 46.1201 48.593 46.2576 48.033 46.2576C47.473 46.2576 46.968 46.1201 46.5155 45.8476C46.063 45.5751 45.7055 45.1851 45.438 44.6826C45.1705 44.1801 45.038 43.5926 45.038 42.9176C45.038 42.2426 45.1705 41.6551 45.438 41.1526C45.7055 40.6501 46.063 40.2626 46.5155 39.9876C46.968 39.7151 47.473 39.5776 48.033 39.5776C48.593 39.5776 49.098 39.7151 49.5505 39.9876C50.003 40.2601 50.3605 40.6501 50.628 41.1526C50.8955 41.6551 51.028 42.2426 51.028 42.9176C51.028 43.5926 50.8955 44.1801 50.628 44.6826Z" fill="white"/>
<path d="M65.0154 43.6804C65.0154 44.5204 64.8204 45.1604 64.4329 45.5979C64.0454 46.0379 63.5529 46.2554 62.9529 46.2554C62.3529 46.2554 61.8654 46.0553 61.5204 45.6553C61.1779 45.2554 61.0054 44.6479 61.0054 43.8329V38.7704C61.0054 37.3729 59.8729 36.2404 58.4754 36.2404H56.5029V43.9678C56.5029 45.8629 56.9354 47.3254 57.8004 48.3554C58.6654 49.3854 59.8804 49.9004 61.4454 49.9004C63.0104 49.9004 64.2429 49.3228 65.1479 48.1628V49.5928H69.5179V36.2354H65.0154V43.6779V43.6804Z" fill="white"/>
<path d="M80.0984 36.8478C79.1834 36.4403 78.1084 36.2378 76.8734 36.2378H70.4434V49.5953H74.9459V46.3128H76.8734C78.1084 46.3128 79.1809 46.1103 80.0984 45.7028C81.0134 45.2953 81.7209 44.7103 82.2159 43.9478C82.7109 43.1853 82.9609 42.2953 82.9609 41.2753C82.9609 40.2553 82.7134 39.3678 82.2159 38.6053C81.7209 37.8428 81.0134 37.2578 80.0984 36.8503V36.8478ZM77.9609 42.4303C77.6559 42.7028 77.1984 42.8403 76.5884 42.8403H74.9484V39.7103H76.5884C77.1984 39.7103 77.6559 39.8478 77.9609 40.1203C78.2659 40.3928 78.4184 40.7778 78.4184 41.2753C78.4184 41.7728 78.2659 42.1553 77.9609 42.4303Z" fill="white"/>
<path d="M23.1352 58.7378H25.1402V65.2078H17.5402V55.3428H13.0352V68.6978H31.6452V65.2078H29.6427V58.7378H31.6452V55.3428H23.1352V58.7378Z" fill="white"/>
<path d="M40.6549 55.0352C39.0649 55.0352 37.8174 55.6152 36.9149 56.7727V55.3427H32.5449V68.7002H37.0474V61.2577C37.0474 60.4052 37.2399 59.7627 37.6299 59.3302C38.0174 58.8977 38.5224 58.6827 39.1474 58.6827C39.7724 58.6827 40.2574 58.8827 40.6074 59.2827C40.9574 59.6827 41.1324 60.2902 41.1324 61.1052V66.1452C41.1324 67.5552 42.2749 68.6977 43.6849 68.6977H45.6349V60.9702C45.6349 59.0752 45.1999 57.6127 44.3274 56.5827C43.4549 55.5527 42.2324 55.0377 40.6549 55.0377V55.0352Z" fill="white"/>
<path d="M60.2624 55.3428H55.3599L50.9699 60.1878V55.3428H46.5449V68.6978H50.9699V65.3978L51.9824 64.2728L55.3224 68.6978H60.5299L54.9199 61.2178L60.2624 55.3428Z" fill="white"/>
<path d="M41.7205 80.3176V88.0376H39.628C38.3005 88.0376 37.223 86.9601 37.223 85.6326V80.4526C37.223 78.7751 36.4405 78.0326 35.2405 78.0326C34.0405 78.0326 33.143 78.8326 33.143 80.6051V88.0376H28.6455V74.6951H31.5805C32.3705 74.6951 33.0105 75.3351 33.0105 76.1251C33.868 75.0201 35.1255 74.3901 36.7455 74.3901C39.8905 74.3901 41.7205 76.5051 41.7205 80.3176Z" fill="#BFD8FF"/>
<path d="M54.6778 84.7324V88.0349H46.3753C45.0328 88.0349 43.9453 86.9474 43.9453 85.6049V77.0999C43.9453 75.7574 45.0328 74.6699 46.3753 74.6699H54.4278V77.9724H48.0678V79.8449H53.2428V82.6724H48.0678V84.7349H54.6753L54.6778 84.7324Z" fill="#BFD8FF"/>
<path d="M19.7054 74.29C15.4754 74.29 12.3604 77.1975 12.3604 81.1625C12.3604 85.1275 15.4754 88.035 19.7054 88.035C23.9354 88.035 27.0504 85.1275 27.0504 81.1625C27.0504 77.1975 23.9354 74.29 19.7054 74.29ZM19.7054 84.94C17.7029 84.94 16.1354 83.4475 16.1354 81.1625C16.1354 78.8775 17.7029 77.385 19.7054 77.385C21.7079 77.385 23.2754 78.8775 23.2754 81.1625C23.2754 83.4475 21.7079 84.94 19.7054 84.94Z" fill="#BFD8FF"/>
</g>
<defs>
<clipPath id="clip0_289_8">
<rect width="100" height="100" fill="white"/>
</clipPath>
</defs>
</svg>
